<?xml version="1.0" standalone="no"?>
<!DOCTYPE svg PUBLIC "-//W3C//DTD SVG 20010904//EN"
 "http://www.w3.org/TR/2001/REC-SVG-20010904/DTD/svg10.dtd">
<svg version="1.0" xmlns="http://www.w3.org/2000/svg"
 width="512.000000pt" height="512.000000pt" viewBox="0 0 512.000000 512.000000"
 preserveAspectRatio="xMidYMid meet">
<metadata>
Created by potrace 1.14, written by Peter Selinger 2001-2017
</metadata>
<g transform="translate(0.000000,512.000000) scale(0.100000,-0.100000)"
fill="#000000" stroke="none">
<path d="M2380 5034 c-19 -2 -78 -9 -130 -15 -424 -48 -889 -244 -1235 -519
-441 -352 -766 -876 -878 -1415 -42 -200 -51 -299 -51 -525 0 -411 71 -724
248 -1085 129 -263 258 -446 455 -648 392 -402 888 -649 1461 -728 122 -17
497 -18 615 -1 565 79 1028 302 1424 687 762 740 968 1889 507 2840 -123 253
-252 443 -428 630 -393 417 -894 677 -1463 761 -96 14 -453 27 -525 18z m-342
-1731 l2 -503 520 0 520 0 2 503 3 502 258 3 257 2 0 -1225 0 -1225 -260 0
-260 0 0 505 0 505 -520 0 -520 0 0 -505 0 -505 -260 0 -260 0 0 1225 0 1225
258 -2 257 -3 3 -502z"/>
</g>
</svg>
